<svg width="16" height="16" viewBox="0 0 16 16" fill="none" xmlns="http://www.w3.org/2000/svg">
    <path
        d="M2.10638 15.234C1.65 15.234 1.25931 15.0715 0.934308 14.7465C0.609308 14.4215 0.446808 14.0308 0.446808 13.5744V1.95743C0.446808 1.50104 0.609308 1.11035 0.934308 0.785352C1.25931 0.460352 1.65 0.297852 2.10638 0.297852H13.7234C14.1798 0.297852 14.5705 0.460352 14.8955 0.785352C15.2205 1.11035 15.383 1.50104 15.383 1.95743V13.5744C15.383 14.0308 15.2205 14.4215 14.8955 14.7465C14.5705 15.0715 14.1798 15.234 13.7234 15.234H2.10638ZM2.10638 13.5744H13.7234V1.95743H2.10638V13.5744Z"
        fill="white" />
</svg>